<svg width="48" height="34" viewBox="0 0 48 34" fill="none" xmlns="http://www.w3.org/2000/svg">
<path d="M44.91 10.3889C43.7333 10.3889 42.78 11.3422 42.78 12.5183C42.78 12.8194 42.8444 13.105 42.9572 13.3644L30.2728 18.8628L24.3156 4.10167C25.0967 3.78611 25.6494 3.02333 25.6494 2.12944C25.6494 0.953333 24.6956 0 23.5194 0C22.3439 0 21.39 0.953333 21.39 2.12944C21.39 3.02333 21.9428 3.78611 22.7233 4.10167L16.7661 18.8628L4.08167 13.3644C4.19444 13.1044 4.25889 12.8189 4.25889 12.5183C4.25889 11.3422 3.30556 10.3889 2.12944 10.3889C0.953333 10.3889 0 11.3422 0 12.5183C0 13.6939 0.953333 14.6478 2.12944 14.6478C2.345 14.6478 2.54833 14.6061 2.74444 14.5472L8.39 33.17H10.9922H23.5194H36.0472H38.65L44.295 14.5472C44.4911 14.6061 44.695 14.6478 44.91 14.6478C46.085 14.6478 47.0394 13.6944 47.0394 12.5183C47.0394 11.3422 46.085 10.3889 44.91 10.3889Z" fill="#FFC560"/>
</svg>
