<svg width="30" height="30" viewBox="0 0 30 30" fill="none" xmlns="http://www.w3.org/2000/svg">
<path fill-rule="evenodd" clip-rule="evenodd" d="M30 0H0V30H30V0ZM15.8562 23.4375H12.7859V15.0041H11.25V12.369H12.7859V10.2538H12.7915C12.8451 8.42475 13.4629 6.68344 16.4694 6.57431V6.5625H18.391V9.19762H16.8232C16.2543 9.19762 15.8562 9.84394 15.8562 10.4595V12.369H18.6151L18.1596 15.0041H15.8562V23.4375Z" fill="#DD8138"/>
<path d="M12.7859 23.4375H15.8562V15.0041H18.1596L18.6151 12.369H15.8562V10.4595C15.8562 9.84394 16.2543 9.19762 16.8232 9.19762H18.391V6.5625H16.4694V6.57431C13.4629 6.68344 12.8451 8.42475 12.7915 10.2538H12.7859V12.369H11.25V15.0041H12.7859V23.4375Z" fill="white"/>
</svg>
